<svg xmlns="http://www.w3.org/2000/svg" viewBox="0 0 129 128"><defs><style>.cls-1{fill:#3e3e49;}.cls-2{fill:#4739f7;}.cls-3{font-size:58px;}.cls-3,.cls-4{fill:#fff;font-family:Rockwell-Regular, Rockwell;}.cls-4{font-size:60px;}</style></defs><title>logo-favicon_2</title><g id="Layer_2" data-name="Layer 2"><g id="Layer_1-2" data-name="Layer 1"><rect class="cls-1" x="0.5" y="0.5" width="127" height="127" rx="9.5"/><path d="M118,1a9,9,0,0,1,9,9V118a9,9,0,0,1-9,9H10a9,9,0,0,1-9-9V10a9,9,0,0,1,9-9H118m0-1H10A10,10,0,0,0,0,10V118a10,10,0,0,0,10,10H118a10,10,0,0,0,10-10V10A10,10,0,0,0,118,0Z"/><polygon class="cls-2" points="47.98 96 47.7 84.02 89.02 31 89.3 42.98 47.98 96"/><text class="cls-3" transform="translate(18.99 65.69)">b</text><text class="cls-4" transform="translate(84 106.16)">f</text></g></g></svg>