<svg xmlns="http://www.w3.org/2000/svg" viewBox="0 0 128 128"><defs><style>.cls-1{fill:#3e3e49;}.cls-2{fill:#4739f7;}.cls-3{font-size:40px;fill:#fff;font-family:Rockwell-Regular, Rockwell;}</style></defs><title>logo-favicon</title><g id="Layer_2" data-name="Layer 2"><g id="Layer_1-2" data-name="Layer 1"><rect class="cls-1" x="0.5" y="0.5" width="127" height="127" rx="9.5"/><path d="M118,1a9,9,0,0,1,9,9V118a9,9,0,0,1-9,9H10a9,9,0,0,1-9-9V10a9,9,0,0,1,9-9H118m0-1H10A10,10,0,0,0,0,10V118a10,10,0,0,0,10,10H118a10,10,0,0,0,10-10V10A10,10,0,0,0,118,0Z"/><polygon class="cls-2" points="61.53 88.5 50.5 82.09 75.47 38.5 86.5 44.91 61.53 88.5"/><text class="cls-3" transform="translate(22.74 78.36)">b</text><text class="cls-3" transform="translate(88.71 79.44)">f</text></g></g></svg>